<svg xmlns="http://www.w3.org/2000/svg" viewBox="0 0 259.92 275.06"><defs><style>.cls-1{fill:#fff;}</style></defs><g id="Layer_2" data-name="Layer 2"><g id="Layer_1-2" data-name="Layer 1"><path class="cls-1" d="M259.92,273.94l-5.37,0L8,275l-8,0V252.79Q0,130.51,0,8.2C0,.09.07,0,8.43,0Q102.23,0,196,.05c9.59,0,9.95.65,5.44,8.76-9.35,16.84-18.89,33.57-28,50.56-9.86,18.46-9.94,37.62-.33,55.89,18.78,35.72,38.42,71,57.76,106.39,8.61,15.74,17.4,31.38,26,47.14l.7,1.28a11,11,0,0,0,.81,1.29l0,0Z"/></g></g></svg>